<svg width="258" height="87" viewBox="0 0 258 87" fill="none" xmlns="http://www.w3.org/2000/svg">
<path d="M23.7275 36.7144C20.1769 36.7144 17.7405 38.2204 16.4182 41.2322C15.7326 42.8238 15.3898 44.8562 15.3898 47.3294V69H4.95853V29.0379H15.0592V34.878C16.406 32.8211 17.6793 31.3396 18.8792 30.4336C21.034 28.8175 23.7642 28.0095 27.0699 28.0095C31.2081 28.0095 34.5873 29.0991 37.2074 31.2784C39.8519 33.4332 41.1742 37.0205 41.1742 42.0403V69H30.4491V44.6481C30.4491 42.5423 30.1675 40.9261 29.6043 39.7998C28.5758 37.7429 26.6169 36.7144 23.7275 36.7144ZM74.4514 69H63.7263V32.2701H51.2014V25.1445C54.5071 24.9976 56.8211 24.7772 58.1434 24.4834C60.2492 24.0182 61.9633 23.0877 63.2856 21.6919C64.1916 20.737 64.8772 19.4637 65.3424 17.872C65.6118 16.9171 65.7465 16.2069 65.7465 15.7417H74.4514V69ZM92.5593 58.0545H103.688V69H92.5593V58.0545ZM141.817 42.2959C141.014 39.3873 139.635 37.1306 137.679 35.5259C135.724 33.871 133.241 33.0435 130.232 33.0435C127.926 33.0435 125.945 33.5199 124.29 34.4728C122.635 35.4256 121.281 36.7044 120.228 38.3091C119.175 39.8637 118.397 41.644 117.896 43.6499C117.394 45.6057 117.144 47.5866 117.144 49.5925C117.144 51.6486 117.369 53.6546 117.821 55.6103C118.322 57.5661 119.099 59.3213 120.152 60.8759C121.206 62.4305 122.56 63.6843 124.215 64.6371C125.869 65.5398 127.875 65.9911 130.232 65.9911C133.592 65.9911 136.275 65.0633 138.281 63.2078C140.337 61.3524 141.641 58.7948 142.193 55.5351H147.007C146.606 57.6915 145.954 59.6724 145.051 61.4777C144.199 63.2329 143.07 64.7625 141.666 66.0663C140.312 67.32 138.682 68.2979 136.777 69C134.871 69.7021 132.69 70.0531 130.232 70.0531C127.123 70.0531 124.44 69.5266 122.184 68.4734C119.927 67.4203 118.071 65.9911 116.617 64.1857C115.163 62.3302 114.085 60.1488 113.382 57.6414C112.68 55.1339 112.329 52.451 112.329 49.5925C112.329 46.8845 112.705 44.3019 113.458 41.8446C114.26 39.3372 115.413 37.1306 116.918 35.225C118.422 33.3193 120.278 31.8149 122.484 30.7116C124.741 29.5582 127.324 28.9815 130.232 28.9815C134.746 28.9815 138.381 30.0597 141.14 32.2161C143.948 34.3725 145.703 37.7324 146.405 42.2959H141.817ZM181.509 48.5394C179.603 49.3418 177.673 49.8683 175.717 50.1191C173.761 50.3698 171.805 50.5704 169.849 50.7209C166.389 50.9716 163.681 51.7489 161.725 53.0528C159.82 54.3566 158.867 56.3375 158.867 58.9954C158.867 60.1989 159.093 61.2521 159.544 62.1547C160.045 63.0073 160.672 63.7344 161.425 64.3362C162.227 64.8878 163.13 65.3141 164.133 65.615C165.186 65.8657 166.239 65.9911 167.292 65.9911C169.097 65.9911 170.852 65.7654 172.558 65.3141C174.263 64.8627 175.767 64.1857 177.071 63.2831C178.425 62.3302 179.503 61.1518 180.305 59.7476C181.108 58.2933 181.509 56.5882 181.509 54.6325V48.5394ZM173.912 46.2827C174.764 46.1824 175.767 46.032 176.92 45.8314C178.124 45.6308 179.102 45.355 179.854 45.0039C180.606 44.6529 181.058 44.0762 181.208 43.2738C181.409 42.4213 181.509 41.644 181.509 40.9419C181.509 38.6351 180.757 36.7545 179.252 35.3002C177.798 33.7957 175.316 33.0435 171.805 33.0435C170.251 33.0435 168.821 33.194 167.518 33.4949C166.214 33.7456 165.06 34.222 164.057 34.9241C163.105 35.576 162.302 36.4787 161.65 37.6321C161.048 38.7354 160.647 40.1395 160.447 41.8446H155.858C156.008 39.5378 156.535 37.582 157.438 35.9772C158.34 34.3223 159.494 32.9934 160.898 31.9904C162.352 30.9373 164.007 30.1851 165.863 29.7337C167.768 29.2322 169.774 28.9815 171.88 28.9815C173.836 28.9815 175.667 29.2072 177.372 29.6585C179.127 30.0597 180.631 30.7367 181.885 31.6895C183.189 32.5922 184.192 33.8208 184.894 35.3754C185.646 36.93 186.022 38.8357 186.022 41.0924V62.3052C186.022 64.0604 186.323 65.1887 186.925 65.6902C187.577 66.1415 188.856 66.0162 190.761 65.3141V68.8496C190.41 68.9499 189.884 69.1003 189.182 69.3009C188.53 69.5015 187.878 69.6018 187.226 69.6018C186.524 69.6018 185.847 69.5266 185.195 69.3761C184.443 69.2758 183.841 69.0501 183.39 68.6991C182.938 68.2979 182.562 67.8466 182.261 67.3451C182.01 66.7935 181.835 66.2168 181.735 65.615C181.634 64.963 181.584 64.286 181.584 63.584C179.679 65.6902 177.497 67.295 175.04 68.3982C172.583 69.5015 169.925 70.0531 167.066 70.0531C165.361 70.0531 163.706 69.8275 162.102 69.3761C160.547 68.9248 159.168 68.2227 157.964 67.2699C156.761 66.3171 155.808 65.1636 155.106 63.8096C154.404 62.4055 154.053 60.7506 154.053 58.8449C154.053 52.2253 158.591 48.3137 167.668 47.1102L173.912 46.2827ZM202.546 69H198.033V30.0346H202.546V37.3312H202.697C203.95 34.222 205.555 32.0656 207.511 30.8621C209.517 29.6083 212.15 28.9815 215.409 28.9815V33.871C212.852 33.8208 210.745 34.222 209.09 35.0745C207.436 35.9271 206.107 37.0805 205.104 38.5348C204.151 39.9891 203.474 41.7192 203.073 43.7251C202.722 45.6809 202.546 47.737 202.546 49.8934V69ZM249.743 46.8093C249.743 44.9036 249.467 43.1234 248.916 41.4685C248.414 39.7634 247.637 38.3091 246.584 37.1055C245.581 35.8518 244.302 34.8739 242.747 34.1719C241.193 33.4196 239.413 33.0435 237.407 33.0435C235.401 33.0435 233.62 33.4196 232.066 34.1719C230.561 34.9241 229.257 35.9271 228.154 37.1808C227.101 38.4345 226.249 39.8888 225.597 41.5437C224.945 43.1986 224.518 44.9538 224.318 46.8093H249.743ZM224.318 50.5704C224.318 52.6767 224.594 54.6826 225.145 56.5882C225.697 58.4437 226.499 60.0736 227.552 61.4777C228.656 62.8317 230.035 63.935 231.69 64.7875C233.345 65.5899 235.25 65.9911 237.407 65.9911C240.365 65.9911 242.898 65.2138 245.004 63.6592C247.11 62.1046 248.514 59.898 249.217 57.0396H254.256C253.705 58.8951 252.978 60.6252 252.075 62.23C251.172 63.7846 250.044 65.1636 248.69 66.3672C247.336 67.5206 245.731 68.4233 243.876 69.0752C242.02 69.7272 239.864 70.0531 237.407 70.0531C234.297 70.0531 231.614 69.5266 229.358 68.4734C227.101 67.4203 225.246 65.9911 223.791 64.1857C222.337 62.3302 221.259 60.1739 220.557 57.7166C219.855 55.2092 219.504 52.5262 219.504 49.6677C219.504 46.8093 219.905 44.1263 220.707 41.6189C221.56 39.1115 222.738 36.93 224.243 35.0745C225.797 33.1689 227.678 31.6895 229.884 30.6364C232.091 29.5331 234.598 28.9815 237.407 28.9815C242.772 28.9815 246.985 30.837 250.044 34.548C253.103 38.2088 254.608 43.5496 254.557 50.5704H224.318Z" fill="black"/>
</svg>
