<svg width="512" height="512" viewBox="0 0 512 512" fill="none" xmlns="http://www.w3.org/2000/svg">
<rect width="512" height="512" rx="101.345" fill="#0D7377"/>
<path d="M380.567 351.999H341.984V219.865H296.926V194.231C308.818 193.702 317.142 192.909 321.899 191.852C329.475 190.179 335.641 186.831 340.398 181.81C343.657 178.375 346.124 173.794 347.798 168.068C348.767 164.633 349.251 162.078 349.251 160.404H380.567V351.999Z" fill="#E6FFF7"/>
<path d="M198.087 235.852C185.314 235.852 176.549 241.27 171.792 252.105C169.326 257.83 168.093 265.142 168.093 274.039V351.998H130.566V208.236H166.903V229.245C171.748 221.846 176.329 216.516 180.645 213.257C188.397 207.443 198.219 204.536 210.111 204.536C224.999 204.536 237.155 208.456 246.58 216.296C256.094 224.048 260.851 236.953 260.851 255.011V351.998H222.268V264.393C222.268 256.817 221.255 251.003 219.229 246.951C215.529 239.552 208.482 235.852 198.087 235.852Z" fill="#E6FFF7"/>
</svg>
