<svg width="512" height="512" viewBox="0 0 512 512" fill="none" xmlns="http://www.w3.org/2000/svg">
<rect width="512" height="512" rx="101.345" fill="#E6FFF7"/>
<path d="M381.001 351.596H342.417V219.461H297.359V193.827C309.252 193.298 317.576 192.505 322.333 191.448C329.909 189.774 336.075 186.427 340.832 181.406C344.091 177.97 346.558 173.39 348.231 167.664C349.2 164.228 349.685 161.674 349.685 160H381.001V351.596Z" fill="#0D7377"/>
<path d="M198.521 235.448C185.748 235.448 176.983 240.865 172.226 251.7C169.76 257.426 168.526 264.738 168.526 273.635V351.595H131V207.832H167.337V228.841C172.182 221.442 176.763 216.112 181.079 212.853C188.831 207.039 198.653 204.132 210.545 204.132C225.432 204.132 237.589 208.052 247.015 215.892C256.528 223.644 261.285 236.549 261.285 254.607V351.595H222.702V263.989C222.702 256.413 221.689 250.599 219.663 246.547C215.963 239.148 208.916 235.448 198.521 235.448Z" fill="#0D7377"/>
</svg>
